<?xml version="1.0" standalone="no"?>
<!DOCTYPE svg PUBLIC "-//W3C//DTD SVG 20010904//EN"
 "http://www.w3.org/TR/2001/REC-SVG-20010904/DTD/svg10.dtd">
<svg version="1.0" xmlns="http://www.w3.org/2000/svg"
 width="20px" height="20px" viewBox="0 0 512.000000 512.000000"
 preserveAspectRatio="xMidYMid meet">
<metadata>
Created by potrace 1.16, written by Peter Selinger 2001-2019
</metadata>
<g transform="translate(0.000000,512.000000) scale(0.100000,-0.100000)"
fill="#6f6d72" stroke="none">
<path d="M328 5101 c-145 -47 -269 -174 -312 -320 -14 -48 -16 -154 -16 -861
0 -707 2 -813 16 -861 43 -148 168 -274 315 -320 58 -18 104 -19 869 -19 765
0 811 1 869 19 147 46 272 172 315 320 14 48 16 154 16 862 0 764 -1 810 -19
868 -46 147 -172 272 -320 315 -48 14 -154 16 -865 15 -758 0 -815 -1 -868
-18z m1616 -311 c49 -11 85 -37 111 -81 20 -33 20 -52 20 -789 0 -737 0 -756
-20 -789 -26 -44 -62 -70 -111 -81 -51 -12 -1437 -12 -1488 0 -49 11 -85 37
-111 81 -20 33 -20 52 -20 789 0 737 0 756 20 789 25 42 62 71 106 81 48 11
1445 12 1493 0z"/>
<path d="M3048 5101 c-145 -47 -269 -174 -312 -320 -14 -48 -16 -154 -16 -861
0 -707 2 -813 16 -861 43 -148 168 -274 315 -320 58 -18 104 -19 869 -19 765
0 811 1 869 19 147 46 272 172 315 320 14 48 16 154 16 862 0 764 -1 810 -19
868 -46 147 -172 272 -320 315 -48 14 -154 16 -865 15 -758 0 -815 -1 -868
-18z m1616 -311 c49 -11 85 -37 111 -81 20 -33 20 -52 20 -789 0 -737 0 -756
-20 -789 -26 -44 -62 -70 -111 -81 -51 -12 -1437 -12 -1488 0 -49 11 -85 37
-111 81 -20 33 -20 52 -20 789 0 737 0 756 20 789 25 42 62 71 106 81 48 11
1445 12 1493 0z"/>
<path d="M328 2381 c-145 -47 -269 -174 -312 -320 -14 -48 -16 -154 -16 -861
0 -707 2 -813 16 -861 43 -148 168 -274 315 -320 58 -18 104 -19 869 -19 765
0 811 1 869 19 147 46 272 172 315 320 14 48 16 154 16 862 0 764 -1 810 -19
868 -46 147 -172 272 -320 315 -48 14 -154 16 -865 15 -758 0 -815 -1 -868
-18z m1616 -311 c49 -11 85 -37 111 -81 20 -33 20 -52 20 -789 0 -737 0 -756
-20 -789 -26 -44 -62 -70 -111 -81 -51 -12 -1437 -12 -1488 0 -49 11 -85 37
-111 81 -20 33 -20 52 -20 789 0 737 0 756 20 789 25 42 62 71 106 81 48 11
1445 12 1493 0z"/>
<path d="M3048 2381 c-145 -47 -269 -174 -312 -320 -14 -48 -16 -154 -16 -861
0 -707 2 -813 16 -861 43 -148 168 -274 315 -320 58 -18 104 -19 869 -19 765
0 811 1 869 19 147 46 272 172 315 320 14 48 16 154 16 862 0 764 -1 810 -19
868 -46 147 -172 272 -320 315 -48 14 -154 16 -865 15 -758 0 -815 -1 -868
-18z m1616 -311 c49 -11 85 -37 111 -81 20 -33 20 -52 20 -789 0 -737 0 -756
-20 -789 -26 -44 -62 -70 -111 -81 -51 -12 -1437 -12 -1488 0 -49 11 -85 37
-111 81 -20 33 -20 52 -20 789 0 737 0 756 20 789 25 42 62 71 106 81 48 11
1445 12 1493 0z"/>
</g>
</svg>
