<?xml version="1.0" standalone="no"?>
<!DOCTYPE svg PUBLIC "-//W3C//DTD SVG 20010904//EN"
 "http://www.w3.org/TR/2001/REC-SVG-20010904/DTD/svg10.dtd">
<svg version="1.0" xmlns="http://www.w3.org/2000/svg"
 width="20px" height="20px" viewBox="0 0 512.000000 512.000000"
 preserveAspectRatio="xMidYMid meet">
<metadata>
Created by potrace 1.16, written by Peter Selinger 2001-2019
</metadata>
<g transform="translate(0.000000,512.000000) scale(0.100000,-0.100000)"
fill="#6f6d72" stroke="none">
<path d="M786 5008 c-14 -20 -16 -80 -16 -455 l0 -432 -315 -161 c-173 -89
-326 -171 -340 -182 l-25 -19 0 -208 c0 -189 2 -209 18 -224 15 -14 41 -17
145 -17 l127 0 0 -1390 0 -1390 -125 0 c-174 0 -165 12 -165 -223 0 -165 2
-186 18 -200 17 -16 202 -17 2454 -17 2346 0 2436 1 2451 18 15 16 17 45 17
200 0 234 9 222 -165 222 l-125 0 0 1390 0 1390 128 0 c112 0 131 2 145 18 15
16 17 47 17 225 l0 206 -32 24 c-18 13 -567 299 -1220 635 -819 422 -1197 612
-1218 612 -21 0 -203 -89 -563 -274 -293 -151 -540 -278 -549 -282 -17 -6 -18
11 -18 258 0 244 -1 266 -18 281 -16 15 -53 17 -315 17 -294 0 -296 0 -311
-22z m494 -370 l0 -253 -180 -93 -180 -93 0 345 0 346 180 0 180 0 0 -252z
m2450 -366 l1155 -597 3 -107 3 -106 -132 -4 c-123 -3 -132 -4 -150 -27 -19
-23 -19 -62 -19 -1511 l0 -1487 21 -27 c20 -26 22 -26 150 -26 l129 0 0 -75 0
-75 -2330 0 -2330 0 0 75 0 75 129 0 c128 0 130 0 150 26 l21 27 0 1487 c0
1449 0 1488 -19 1511 -18 23 -27 24 -150 27 l-132 4 3 106 3 106 1155 597
c635 329 1162 597 1170 597 8 0 535 -268 1170 -596z"/>
<path d="M791 3024 c-21 -27 -21 -29 -21 -1106 0 -685 4 -1086 10 -1098 16
-30 67 -40 211 -40 l139 0 0 -100 c0 -142 -3 -140 207 -140 208 0 203 -3 203
140 l0 100 1020 0 1020 0 0 -100 c0 -143 -5 -140 203 -140 210 0 207 -2 207
140 l0 100 139 0 c144 0 195 10 211 40 6 12 10 413 10 1098 0 1077 0 1079 -21
1106 l-20 26 -1749 0 -1749 0 -20 -26z m3409 -1109 l0 -985 -1640 0 -1640 0 0
985 0 985 1640 0 1640 0 0 -985z"/>
<path d="M1901 2769 c-368 -48 -672 -343 -731 -712 -16 -95 -8 -277 15 -362 9
-33 36 -101 60 -151 207 -430 719 -606 1149 -395 303 148 479 435 478 776 -1
146 -23 240 -86 370 -126 261 -374 438 -666 474 -94 12 -126 12 -219 0z m285
-164 c402 -103 632 -525 499 -916 -35 -105 -80 -174 -175 -269 -148 -149 -323
-218 -525 -207 -382 20 -675 328 -675 710 0 451 440 793 876 682z"/>
<path d="M1932 2484 c-28 -14 -64 -40 -78 -57 -70 -83 -99 -212 -70 -317 8
-30 13 -56 11 -58 -1 -2 -15 8 -31 21 -72 60 -173 79 -239 45 -61 -32 -105
-104 -105 -171 0 -101 87 -217 190 -253 62 -21 186 -24 234 -5 39 16 42 8 12
-31 -116 -153 -40 -334 139 -333 182 2 306 202 252 408 l-15 57 46 -33 c83
-60 154 -72 229 -38 91 42 128 163 83 270 -58 133 -236 204 -393 157 -42 -13
-63 -7 -37 9 6 4 24 30 40 58 24 41 30 64 30 110 0 64 -14 99 -57 139 -59 56
-155 65 -241 22z m146 -152 c2 -14 -15 -50 -47 -98 -28 -42 -54 -87 -57 -100
-3 -13 -12 -24 -20 -24 -14 0 -34 59 -34 100 1 38 34 104 66 129 37 29 88 26
92 -7z m295 -336 c66 -27 108 -106 72 -136 -18 -15 -44 -6 -92 32 -21 17 -62
42 -90 55 -29 13 -53 29 -53 34 0 28 109 38 163 15z m-676 -63 c33 -24 75 -48
91 -54 50 -17 47 -36 -9 -49 -40 -10 -60 -10 -95 0 -81 23 -135 100 -99 140
21 23 32 19 112 -37z m403 -239 c38 -98 -51 -250 -126 -216 -33 16 -30 38 12
97 20 28 47 71 60 98 28 53 40 58 54 21z"/>
<path d="M3203 2670 c-44 -18 -57 -86 -23 -120 19 -19 33 -20 380 -20 347 0
361 1 380 20 30 30 27 83 -6 109 -26 20 -37 21 -368 20 -187 0 -351 -4 -363
-9z"/>
<path d="M3182 2197 c-31 -33 -29 -80 4 -106 26 -20 38 -21 374 -21 336 0 348
1 374 21 33 26 36 79 6 109 -19 19 -33 20 -378 20 l-359 0 -21 -23z"/>
<path d="M3176 1738 c-9 -12 -16 -34 -16 -48 0 -14 7 -36 16 -48 l15 -22 368
0 c344 0 369 1 384 18 21 23 22 71 1 100 l-15 22 -369 0 -369 0 -15 -22z"/>
<path d="M3186 1289 c-34 -27 -36 -77 -3 -107 23 -22 28 -22 380 -22 344 0
358 1 377 20 30 30 27 83 -6 109 -26 20 -38 21 -374 21 -336 0 -348 -1 -374
-21z"/>
</g>
</svg>
