<?xml version="1.0" standalone="no"?>
<!DOCTYPE svg PUBLIC "-//W3C//DTD SVG 20010904//EN"
 "http://www.w3.org/TR/2001/REC-SVG-20010904/DTD/svg10.dtd">
<svg version="1.0" xmlns="http://www.w3.org/2000/svg"
 width="20px" height="20px" viewBox="0 0 512.000000 512.000000"
 preserveAspectRatio="xMidYMid meet">

<g transform="translate(0.000000,512.000000) scale(0.100000,-0.100000)"
fill="#6f6d72" stroke="none">
<path d="M2338 5110 c-527 -61 -978 -271 -1343 -627 -90 -87 -179 -188 -219
-247 -67 -100 -3 -216 113 -203 38 4 52 12 86 49 22 25 80 89 130 143 773 847
2140 847 2910 0 177 -194 177 -195 224 -195 81 0 131 48 131 128 0 44 -22 82
-108 182 -347 403 -832 671 -1367 755 -118 19 -448 27 -557 15z"/>
<path d="M2430 4436 c-238 -67 -404 -297 -386 -536 22 -301 292 -521 589 -480
291 40 500 340 433 623 -45 190 -193 343 -381 393 -62 17 -195 17 -255 0z"/>
<path d="M710 3759 c-206 -40 -349 -241 -320 -451 45 -322 451 -457 678 -225
156 161 158 401 4 560 -60 61 -120 95 -202 113 -73 15 -95 16 -160 3z"/>
<path d="M4245 3755 c-203 -45 -340 -249 -305 -454 55 -325 461 -449 684 -211
218 233 92 611 -223 670 -66 12 -80 12 -156 -5z"/>
<path d="M2055 3182 c-115 -36 -180 -71 -245 -135 -72 -72 -118 -169 -131
-277 -6 -50 -9 -268 -7 -525 l3 -441 167 -254 168 -255 0 -636 c0 -480 3 -638
12 -647 17 -17 1059 -17 1076 0 9 9 12 167 12 647 l0 636 168 255 167 254 0
501 c0 496 0 501 -23 563 -60 167 -165 257 -370 318 -92 27 -93 27 -112 8 -10
-10 -86 -208 -170 -439 -84 -231 -158 -430 -166 -442 -10 -16 -24 -23 -44 -23
-20 0 -34 7 -44 23 -8 12 -82 211 -166 442 -84 231 -159 428 -168 438 -19 21
-19 21 -127 -11z"/>
<path d="M2442 3177 c-31 -33 -28 -52 20 -125 l42 -65 -17 -150 -17 -151 37
-98 c26 -71 41 -98 53 -98 12 0 27 27 53 98 l37 98 -17 151 -17 150 42 65 c48
74 51 96 19 126 -21 19 -35 22 -118 22 -87 0 -97 -2 -117 -23z"/>
<path d="M430 2845 c-101 -29 -154 -58 -210 -115 -54 -53 -86 -110 -106 -185
-21 -76 -20 -715 1 -755 8 -15 57 -94 109 -173 l95 -145 3 -429 c3 -466 2
-458 61 -493 30 -19 53 -20 409 -20 l376 0 31 26 c17 14 35 42 41 62 6 22 10
197 10 444 l0 408 110 165 110 166 0 355 c0 332 -1 359 -21 416 -48 144 -147
230 -316 276 -41 11 -80 16 -99 12 -16 -4 -79 -43 -139 -88 l-108 -82 -31 23
c-221 166 -216 164 -326 132z"/>
<path d="M3979 2845 c-169 -49 -260 -130 -308 -273 -20 -57 -21 -84 -21 -416
l0 -355 110 -166 110 -165 0 -408 c0 -247 4 -422 10 -444 6 -20 24 -48 41 -62
l31 -26 376 0 c356 0 379 1 409 20 59 35 58 27 61 493 l3 429 95 145 c52 79
101 158 109 173 21 40 22 679 1 755 -29 111 -107 210 -202 258 -73 37 -183 65
-221 56 -18 -3 -68 -33 -110 -64 -43 -32 -92 -69 -109 -82 l-31 -23 -108 81
c-60 45 -123 85 -140 89 -22 5 -56 0 -106 -15z"/>
</g>
</svg>
