<?xml version="1.0" standalone="no"?>
<!DOCTYPE svg PUBLIC "-//W3C//DTD SVG 20010904//EN"
 "http://www.w3.org/TR/2001/REC-SVG-20010904/DTD/svg10.dtd">
<svg version="1.0" xmlns="http://www.w3.org/2000/svg"
 width="512.000000pt" height="512.000000pt" viewBox="0 0 512.000000 512.000000"
 preserveAspectRatio="xMidYMid meet">

<g transform="translate(0.000000,512.000000) scale(0.100000,-0.100000)"
fill="#6f6d72" width="20px" height="20px" stroke="none">
<path d="M2169 5105 c-35 -19 -51 -62 -47 -124 l3 -52 -60 -27 c-342 -155
-588 -429 -699 -779 -31 -99 -56 -264 -56 -369 l0 -79 -45 -18 c-64 -27 -139
-101 -172 -172 -24 -52 -28 -72 -28 -150 0 -76 4 -99 26 -146 55 -116 169
-192 307 -205 80 -8 75 -2 87 -99 11 -89 45 -198 95 -301 100 -207 257 -373
458 -484 l43 -24 -3 -90 -3 -91 -225 -50 c-254 -57 -370 -90 -515 -146 -209
-81 -353 -169 -488 -298 -168 -161 -257 -335 -292 -571 -19 -124 -21 -735 -3
-775 26 -59 -103 -55 2008 -55 2111 0 1982 -4 2008 55 18 40 16 651 -3 775
-33 223 -114 389 -264 543 -214 221 -517 362 -1006 467 -82 18 -172 38 -200
44 l-50 12 -2 90 -3 89 91 55 c264 160 469 467 504 755 12 97 7 91 87 99 138
13 252 89 307 206 22 47 26 69 26 145 0 82 -3 97 -33 157 -37 76 -99 137 -167
165 l-45 18 0 80 c-1 465 -272 905 -687 1114 -43 22 -91 45 -106 50 -27 10
-27 13 -21 61 8 61 -8 106 -47 125 -41 22 -741 21 -780 0z m611 -192 c0 -5
-14 -95 -31 -200 l-32 -193 -157 0 -157 0 -32 193 c-17 105 -31 195 -31 200 0
9 440 9 440 0z m-610 -203 c0 -27 52 -309 62 -333 21 -53 42 -57 328 -57 286
0 307 4 328 57 6 15 23 98 38 183 14 85 28 157 30 159 8 9 96 -33 169 -81 290
-190 462 -489 482 -835 l6 -113 -1053 0 -1053 0 6 113 c21 380 233 709 573
888 58 30 84 36 84 19z m-700 -1376 l0 -157 -57 6 c-97 10 -158 75 -151 163 3
28 13 62 24 77 26 37 91 67 142 67 l42 0 0 -156z m1978 -136 c-4 -284 -5 -296
-32 -382 -92 -304 -295 -512 -596 -612 -80 -27 -95 -28 -260 -28 -165 0 -180
1 -260 28 -282 93 -490 295 -579 562 -44 132 -51 194 -51 472 l0 252 891 0
891 0 -4 -292z m327 272 c78 -38 109 -142 63 -210 -35 -51 -68 -70 -131 -77
l-57 -6 0 157 0 156 42 0 c23 0 60 -9 83 -20z m-1420 -1485 c92 -19 318 -19
410 0 38 8 71 15 72 15 2 0 3 -53 3 -118 0 -138 -14 -189 -67 -251 -55 -65
-122 -95 -213 -95 -88 0 -156 29 -208 88 -60 69 -66 89 -70 239 -2 75 -2 137
0 137 1 0 35 -7 73 -15z m-254 -322 c29 -77 59 -124 120 -186 149 -149 356
-186 546 -97 101 47 200 151 239 251 9 24 20 48 24 52 6 7 160 -20 223 -39 16
-5 17 -31 17 -365 l0 -359 -710 0 -710 0 0 360 0 360 27 6 c70 18 180 42 196
43 11 1 22 -10 28 -26z m-451 -468 c0 -429 1 -439 55 -463 19 -9 234 -12 856
-12 901 0 871 -2 897 55 9 19 12 136 12 420 0 217 3 395 8 395 13 0 136 -40
220 -72 l82 -31 0 -643 0 -644 -1220 0 -1220 0 0 644 0 643 98 36 c124 45 184
65 200 66 9 1 12 -84 12 -394z m-510 -405 l0 -590 -201 0 -201 0 4 308 c5 279
7 314 27 387 49 173 157 330 301 437 36 26 66 48 68 48 1 0 2 -265 2 -590z
m2922 533 c135 -103 242 -262 289 -428 20 -73 22 -108 27 -387 l4 -308 -201 0
-201 0 0 591 c0 469 3 589 13 583 6 -4 37 -27 69 -51z"/>
<path d="M2133 4085 c-12 -8 -27 -31 -33 -50 -16 -50 11 -105 60 -122 49 -17
751 -17 800 0 49 17 76 72 60 121 -22 67 -15 66 -462 66 -343 0 -407 -2 -425
-15z"/>
</g>
</svg>
