<?xml version="1.0" standalone="no"?>
<!DOCTYPE svg PUBLIC "-//W3C//DTD SVG 20010904//EN"
 "http://www.w3.org/TR/2001/REC-SVG-20010904/DTD/svg10.dtd">
<svg version="1.0" xmlns="http://www.w3.org/2000/svg"
 width="512.000000pt" height="512.000000pt" viewBox="0 0 512.000000 512.000000"
 preserveAspectRatio="xMidYMid meet">

<g transform="translate(0.000000,512.000000) scale(0.100000,-0.100000)"
fill="#000000" stroke="none">
<path d="M501 4964 c-169 -45 -301 -180 -346 -351 -23 -86 -23 -4020 0 -4106
45 -173 178 -307 350 -352 52 -13 295 -15 2052 -15 1438 0 2007 3 2045 11 124
27 257 127 317 238 65 123 61 -27 61 2171 0 2198 4 2048 -61 2171 -60 111
-193 211 -317 238 -38 8 -606 11 -2050 10 -1711 0 -2005 -2 -2051 -15z m4146
-156 c76 -40 115 -79 154 -150 l34 -63 0 -2035 0 -2035 -27 -52 c-40 -76 -79
-115 -150 -154 l-63 -34 -2035 0 -2035 0 -63 34 c-71 39 -110 78 -150 154
l-27 52 -3 2015 c-3 2234 -7 2065 63 2162 39 53 101 99 165 121 40 15 248 16
2065 14 l2020 -2 52 -27z"/>
<path d="M712 4560 c-43 -10 -94 -46 -121 -86 -71 -103 -32 -247 82 -300 86
-40 165 -26 232 41 69 68 82 149 38 236 -44 85 -141 131 -231 109z m93 -155
c14 -13 25 -34 25 -46 0 -30 -38 -69 -67 -69 -30 0 -73 42 -73 70 0 27 43 70
70 70 12 0 32 -11 45 -25z"/>
<path d="M2440 4564 c-384 -27 -735 -154 -1063 -384 -120 -84 -353 -317 -437
-437 -199 -284 -316 -571 -366 -898 -22 -148 -22 -423 0 -570 97 -627 447
-1139 1001 -1461 193 -113 450 -201 700 -240 226 -35 539 -18 776 42 711 178
1275 742 1453 1452 42 166 58 303 58 492 1 434 -121 811 -382 1183 -84 120
-317 353 -437 437 -352 247 -710 369 -1123 383 -69 3 -150 3 -180 1z m291
-144 c445 -45 838 -230 1149 -540 444 -445 635 -1080 509 -1695 -134 -657
-620 -1198 -1260 -1403 -543 -174 -1134 -90 -1609 229 -212 143 -366 297 -511
512 -323 480 -403 1076 -219 1630 273 818 1092 1352 1941 1267z"/>
<path d="M2340 4276 c-383 -56 -710 -213 -976 -468 -630 -605 -710 -1588 -187
-2286 385 -513 1035 -773 1668 -667 640 106 1163 561 1363 1185 244 764 -78
1602 -774 2012 -163 95 -337 161 -539 204 -152 31 -410 41 -555 20z m535 -156
c633 -134 1112 -614 1245 -1248 27 -128 36 -355 21 -492 -86 -734 -667 -1315
-1401 -1401 -137 -16 -364 -6 -493 21 -634 133 -1114 613 -1247 1248 -27 128
-36 355 -21 492 77 654 547 1195 1183 1359 163 42 239 50 438 46 128 -3 202
-10 275 -25z"/>
<path d="M2495 3803 c-94 -5 -200 -25 -238 -44 -49 -25 -94 -89 -103 -145 -19
-126 63 -526 153 -749 l21 -50 -38 -42 -37 -43 -64 26 c-115 47 -258 125 -401
220 -78 52 -156 97 -175 100 -85 16 -162 -15 -215 -87 -27 -37 -67 -202 -77
-319 -10 -120 1 -299 24 -377 18 -62 86 -129 144 -139 48 -9 237 11 386 41
117 24 280 72 380 112 l50 21 43 -38 42 -38 -41 -94 c-67 -154 -137 -273 -269
-460 -87 -123 -30 -282 116 -328 164 -50 390 -67 556 -40 93 15 143 42 183 99
29 41 30 47 29 139 -2 175 -65 469 -142 662 l-30 74 37 43 c27 31 41 41 56 37
62 -17 322 -155 432 -230 70 -48 142 -93 160 -100 70 -30 160 -10 221 49 102
99 142 598 60 760 -24 49 -88 94 -144 103 -126 19 -526 -63 -749 -153 l-50
-21 -43 38 -43 38 45 102 c58 132 140 275 221 389 76 106 85 125 85 192 0 85
-45 155 -119 186 -59 25 -184 53 -266 58 -44 3 -96 7 -115 8 -19 2 -57 2 -85
0z m195 -143 c106 -14 207 -39 232 -60 35 -28 26 -71 -30 -148 -98 -132 -196
-306 -257 -457 -16 -38 -32 -74 -36 -79 -4 -4 -29 -10 -56 -12 -26 -2 -60 -6
-74 -9 -25 -6 -27 -3 -73 137 -55 170 -82 291 -98 452 l-12 118 27 23 c18 16
45 26 84 30 32 3 65 8 73 9 32 7 149 5 220 -4z m-1000 -786 c126 -87 265 -165
406 -228 l116 -52 4 -49 c2 -28 6 -62 9 -76 6 -25 2 -27 -67 -52 -193 -69
-423 -119 -562 -121 -83 -1 -89 0 -107 24 -24 33 -43 208 -34 315 9 102 40
251 60 282 27 41 68 31 175 -43z m1941 -74 c24 -33 43 -209 34 -315 -9 -102
-40 -251 -60 -282 -28 -42 -65 -31 -204 61 -150 100 -226 142 -379 211 l-114
51 -4 49 c-2 28 -6 62 -9 76 -6 25 -2 27 117 67 203 68 417 111 537 109 56 -2
66 -5 82 -27z m-968 -62 c161 -89 126 -330 -56 -379 -134 -36 -275 93 -252
230 25 146 178 220 308 149z m60 -645 c54 -162 95 -356 104 -486 5 -83 4 -94
-14 -109 -59 -53 -362 -52 -560 1 -97 26 -97 65 1 208 97 143 158 250 215 380
56 129 58 133 74 128 7 -3 32 -1 57 4 25 5 52 9 61 10 13 1 28 -32 62 -136z"/>
<path d="M4315 4561 c-41 -10 -86 -35 -107 -58 -25 -28 -58 -104 -58 -137 -1
-114 102 -217 216 -216 33 0 109 33 137 58 64 58 80 177 33 256 -43 74 -141
117 -221 97z m90 -156 c14 -13 25 -33 25 -45 0 -28 -43 -70 -71 -70 -30 0 -69
38 -69 67 0 30 42 73 70 73 12 0 32 -11 45 -25z"/>
<path d="M680 949 c-57 -26 -77 -44 -103 -94 -48 -95 -13 -217 79 -271 79 -47
198 -31 256 33 25 28 58 104 58 137 0 54 -24 111 -65 151 -64 65 -145 81 -225
44z m127 -141 c13 -12 23 -32 23 -45 0 -30 -42 -73 -70 -73 -11 0 -32 11 -45
25 -14 13 -25 34 -25 45 0 28 43 70 71 70 13 0 33 -10 46 -22z"/>
<path d="M4290 957 c-51 -17 -114 -84 -129 -139 -50 -177 144 -327 303 -234
172 101 110 364 -91 381 -26 2 -64 -1 -83 -8z m115 -152 c14 -13 25 -33 25
-45 0 -27 -43 -70 -70 -70 -28 0 -70 43 -70 71 0 30 38 69 67 69 13 0 35 -11
48 -25z"/>
</g>
</svg>
